<svg width="69" height="27" viewBox="0 0 69 27" fill="none" xmlns="http://www.w3.org/2000/svg">
<rect x="0.375" y="0.366455" width="68" height="26" rx="12" fill="#4400FF"/>
<path d="M7.56783 18.3665V9.13645H11.1428C12.2262 9.13645 13.0712 9.39645 13.6778 9.91645C14.2845 10.4365 14.5878 11.1558 14.5878 12.0745C14.5878 12.6898 14.4492 13.2228 14.1718 13.6735C13.8945 14.1155 13.5002 14.4535 12.9888 14.6875C12.4775 14.9215 11.8622 15.0385 11.1428 15.0385H9.25783V18.3665H7.56783ZM9.25783 13.5695H11.0648C11.6368 13.5695 12.0745 13.4438 12.3778 13.1925C12.6898 12.9411 12.8458 12.5685 12.8458 12.0745C12.8458 11.5891 12.6898 11.2251 12.3778 10.9825C12.0745 10.7311 11.6368 10.6055 11.0648 10.6055H9.25783V13.5695ZM15.9818 18.3665V11.4245H17.5418L17.6068 13.3485L17.4638 13.3225C17.5678 12.6551 17.7628 12.1741 18.0488 11.8795C18.3434 11.5761 18.7421 11.4245 19.2448 11.4245H19.8818V12.8545H19.2318C18.8764 12.8545 18.5818 12.9065 18.3478 13.0105C18.1138 13.1145 17.9361 13.2791 17.8148 13.5045C17.7021 13.7211 17.6458 14.0071 17.6458 14.3625V18.3665H15.9818ZM23.7836 18.5225C23.0903 18.5225 22.4879 18.3751 21.9766 18.0805C21.4653 17.7771 21.0709 17.3525 20.7936 16.8065C20.5163 16.2605 20.3776 15.6235 20.3776 14.8955C20.3776 14.1675 20.5163 13.5348 20.7936 12.9975C21.0709 12.4515 21.4609 12.0268 21.9636 11.7235C22.4749 11.4201 23.0686 11.2685 23.7446 11.2685C24.4033 11.2685 24.9796 11.4158 25.4736 11.7105C25.9763 12.0051 26.3619 12.4298 26.6306 12.9845C26.8993 13.5391 27.0336 14.2065 27.0336 14.9865V15.3635H22.1066C22.1413 15.9701 22.3059 16.4295 22.6006 16.7415C22.9039 17.0448 23.3026 17.1965 23.7966 17.1965C24.1693 17.1965 24.4769 17.1141 24.7196 16.9495C24.9709 16.7761 25.1443 16.5378 25.2396 16.2345L26.9426 16.3385C26.7519 17.0145 26.3749 17.5475 25.8116 17.9375C25.2569 18.3275 24.5809 18.5225 23.7836 18.5225ZM22.1066 14.2455H25.3176C25.2829 13.6821 25.1226 13.2661 24.8366 12.9975C24.5506 12.7201 24.1866 12.5815 23.7446 12.5815C23.3026 12.5815 22.9343 12.7245 22.6396 13.0105C22.3536 13.2965 22.1759 13.7081 22.1066 14.2455ZM28.0583 15.2725V13.8685H32.4783V15.2725H28.0583ZM36.7159 18.5225C36.0312 18.5225 35.4549 18.4228 34.9869 18.2235C34.5275 18.0241 34.1722 17.7468 33.9209 17.3915C33.6695 17.0361 33.5265 16.6331 33.4919 16.1825L35.1949 16.1045C35.2555 16.4685 35.4072 16.7501 35.6499 16.9495C35.8925 17.1488 36.2522 17.2485 36.7289 17.2485C37.1189 17.2485 37.4222 17.1878 37.6389 17.0665C37.8642 16.9365 37.9769 16.7371 37.9769 16.4685C37.9769 16.3125 37.9379 16.1825 37.8599 16.0785C37.7819 15.9745 37.6345 15.8835 37.4179 15.8055C37.2012 15.7275 36.8805 15.6495 36.4559 15.5715C35.7452 15.4501 35.1862 15.3028 34.7789 15.1295C34.3715 14.9475 34.0812 14.7221 33.9079 14.4535C33.7432 14.1848 33.6609 13.8511 33.6609 13.4525C33.6609 12.8025 33.9079 12.2781 34.4019 11.8795C34.9045 11.4721 35.6369 11.2685 36.5989 11.2685C37.2229 11.2685 37.7472 11.3725 38.1719 11.5805C38.5965 11.7798 38.9259 12.0571 39.1599 12.4125C39.4025 12.7591 39.5542 13.1578 39.6149 13.6085L37.9379 13.6865C37.8945 13.4525 37.8165 13.2488 37.7039 13.0755C37.5912 12.9021 37.4395 12.7721 37.2489 12.6855C37.0582 12.5901 36.8329 12.5425 36.5729 12.5425C36.1829 12.5425 35.8882 12.6205 35.6889 12.7765C35.4895 12.9325 35.3899 13.1405 35.3899 13.4005C35.3899 13.5825 35.4332 13.7341 35.5199 13.8555C35.6152 13.9768 35.7669 14.0765 35.9749 14.1545C36.1829 14.2238 36.4602 14.2888 36.8069 14.3495C37.5349 14.4621 38.1069 14.6095 38.5229 14.7915C38.9475 14.9648 39.2465 15.1901 39.4199 15.4675C39.6019 15.7361 39.6929 16.0611 39.6929 16.4425C39.6929 16.8845 39.5672 17.2615 39.3159 17.5735C39.0732 17.8855 38.7265 18.1238 38.2759 18.2885C37.8339 18.4445 37.3139 18.5225 36.7159 18.5225ZM43.1081 18.5225C42.3801 18.5225 41.7951 18.3578 41.3531 18.0285C40.9111 17.6905 40.6901 17.2225 40.6901 16.6245C40.6901 16.0265 40.8764 15.5585 41.2491 15.2205C41.6218 14.8825 42.1894 14.6398 42.9521 14.4925L45.2531 14.0375C45.2531 13.5435 45.1404 13.1751 44.9151 12.9325C44.6898 12.6811 44.3561 12.5555 43.9141 12.5555C43.5154 12.5555 43.1991 12.6508 42.9651 12.8415C42.7398 13.0235 42.5838 13.2878 42.4971 13.6345L40.8071 13.5565C40.9458 12.8198 41.2838 12.2565 41.8211 11.8665C42.3584 11.4678 43.0561 11.2685 43.9141 11.2685C44.9021 11.2685 45.6474 11.5198 46.1501 12.0225C46.6614 12.5165 46.9171 13.2271 46.9171 14.1545V16.6765C46.9171 16.8585 46.9474 16.9841 47.0081 17.0535C47.0774 17.1228 47.1771 17.1575 47.3071 17.1575H47.5281V18.3665C47.4761 18.3838 47.3894 18.3968 47.2681 18.4055C47.1554 18.4141 47.0384 18.4185 46.9171 18.4185C46.6311 18.4185 46.3754 18.3751 46.1501 18.2885C45.9248 18.1931 45.7514 18.0328 45.6301 17.8075C45.5088 17.5735 45.4481 17.2571 45.4481 16.8585L45.5911 16.9625C45.5218 17.2658 45.3701 17.5388 45.1361 17.7815C44.9108 18.0155 44.6248 18.1975 44.2781 18.3275C43.9314 18.4575 43.5414 18.5225 43.1081 18.5225ZM43.4461 17.3135C43.8188 17.3135 44.1394 17.2398 44.4081 17.0925C44.6768 16.9451 44.8848 16.7415 45.0321 16.4815C45.1794 16.2215 45.2531 15.9138 45.2531 15.5585V15.1685L43.4591 15.5325C43.0864 15.6105 42.8178 15.7275 42.6531 15.8835C42.4971 16.0308 42.4191 16.2258 42.4191 16.4685C42.4191 16.7371 42.5058 16.9451 42.6791 17.0925C42.8611 17.2398 43.1168 17.3135 43.4461 17.3135ZM50.1259 18.3665L47.5909 11.4245H49.3459L51.1139 16.6895L52.8819 11.4245H54.6369L52.1019 18.3665H50.1259ZM58.4545 18.5225C57.7612 18.5225 57.1588 18.3751 56.6475 18.0805C56.1362 17.7771 55.7418 17.3525 55.4645 16.8065C55.1872 16.2605 55.0485 15.6235 55.0485 14.8955C55.0485 14.1675 55.1872 13.5348 55.4645 12.9975C55.7418 12.4515 56.1318 12.0268 56.6345 11.7235C57.1458 11.4201 57.7395 11.2685 58.4155 11.2685C59.0742 11.2685 59.6505 11.4158 60.1445 11.7105C60.6472 12.0051 61.0328 12.4298 61.3015 12.9845C61.5702 13.5391 61.7045 14.2065 61.7045 14.9865V15.3635H56.7775C56.8122 15.9701 56.9768 16.4295 57.2715 16.7415C57.5748 17.0448 57.9735 17.1965 58.4675 17.1965C58.8402 17.1965 59.1478 17.1141 59.3905 16.9495C59.6418 16.7761 59.8152 16.5378 59.9105 16.2345L61.6135 16.3385C61.4228 17.0145 61.0458 17.5475 60.4825 17.9375C59.9278 18.3275 59.2518 18.5225 58.4545 18.5225ZM56.7775 14.2455H59.9885C59.9538 13.6821 59.7935 13.2661 59.5075 12.9975C59.2215 12.7201 58.8575 12.5815 58.4155 12.5815C57.9735 12.5815 57.6052 12.7245 57.3105 13.0105C57.0245 13.2965 56.8468 13.7081 56.7775 14.2455Z" fill="white"/>
</svg>
