<svg width="63" height="27" viewBox="0 0 63 27" fill="none" xmlns="http://www.w3.org/2000/svg">
<rect x="0.5" y="0.5" width="62" height="26" rx="12" fill="#FB5068"/>
<path d="M7.58102 18.5V9.27H11.156C12.2393 9.27 13.0843 9.53 13.691 10.05C14.2977 10.57 14.601 11.2893 14.601 12.208C14.601 12.8233 14.4623 13.3563 14.185 13.807C13.9077 14.249 13.5133 14.587 13.002 14.821C12.4907 15.055 11.8753 15.172 11.156 15.172H9.27102V18.5H7.58102ZM9.27102 13.703H11.078C11.65 13.703 12.0877 13.5773 12.391 13.326C12.703 13.0747 12.859 12.702 12.859 12.208C12.859 11.7227 12.703 11.3587 12.391 11.116C12.0877 10.8647 11.65 10.739 11.078 10.739H9.27102V13.703ZM15.995 18.5V11.558H17.555L17.62 13.482L17.477 13.456C17.581 12.7887 17.776 12.3077 18.062 12.013C18.3566 11.7097 18.7553 11.558 19.258 11.558H19.895V12.988H19.245C18.8896 12.988 18.595 13.04 18.361 13.144C18.127 13.248 17.9493 13.4127 17.828 13.638C17.7153 13.8547 17.659 14.1407 17.659 14.496V18.5H15.995ZM23.7968 18.656C23.1035 18.656 22.5011 18.5087 21.9898 18.214C21.4785 17.9107 21.0841 17.486 20.8068 16.94C20.5295 16.394 20.3908 15.757 20.3908 15.029C20.3908 14.301 20.5295 13.6683 20.8068 13.131C21.0841 12.585 21.4741 12.1603 21.9768 11.857C22.4881 11.5537 23.0818 11.402 23.7578 11.402C24.4165 11.402 24.9928 11.5493 25.4868 11.844C25.9895 12.1387 26.3751 12.5633 26.6438 13.118C26.9125 13.6727 27.0468 14.34 27.0468 15.12V15.497H22.1198C22.1545 16.1037 22.3191 16.563 22.6138 16.875C22.9171 17.1783 23.3158 17.33 23.8098 17.33C24.1825 17.33 24.4901 17.2477 24.7328 17.083C24.9841 16.9097 25.1575 16.6713 25.2528 16.368L26.9558 16.472C26.7651 17.148 26.3881 17.681 25.8248 18.071C25.2701 18.461 24.5941 18.656 23.7968 18.656ZM22.1198 14.379H25.3308C25.2961 13.8157 25.1358 13.3997 24.8498 13.131C24.5638 12.8537 24.1998 12.715 23.7578 12.715C23.3158 12.715 22.9475 12.858 22.6528 13.144C22.3668 13.43 22.1891 13.8417 22.1198 14.379ZM28.0715 15.406V14.002H32.4915V15.406H28.0715ZM35.923 18.656C35.195 18.656 34.61 18.4913 34.168 18.162C33.726 17.824 33.505 17.356 33.505 16.758C33.505 16.16 33.6914 15.692 34.064 15.354C34.4367 15.016 35.0044 14.7733 35.767 14.626L38.068 14.171C38.068 13.677 37.9554 13.3087 37.73 13.066C37.5047 12.8147 37.171 12.689 36.729 12.689C36.3304 12.689 36.014 12.7843 35.78 12.975C35.5547 13.157 35.3987 13.4213 35.312 13.768L33.622 13.69C33.7607 12.9533 34.0987 12.39 34.636 12C35.1734 11.6013 35.871 11.402 36.729 11.402C37.717 11.402 38.4624 11.6533 38.965 12.156C39.4764 12.65 39.732 13.3607 39.732 14.288V16.81C39.732 16.992 39.7624 17.1177 39.823 17.187C39.8924 17.2563 39.992 17.291 40.122 17.291H40.343V18.5C40.291 18.5173 40.2044 18.5303 40.083 18.539C39.9704 18.5477 39.8534 18.552 39.732 18.552C39.446 18.552 39.1904 18.5087 38.965 18.422C38.7397 18.3267 38.5664 18.1663 38.445 17.941C38.3237 17.707 38.263 17.3907 38.263 16.992L38.406 17.096C38.3367 17.3993 38.185 17.6723 37.951 17.915C37.7257 18.149 37.4397 18.331 37.093 18.461C36.7464 18.591 36.3564 18.656 35.923 18.656ZM36.261 17.447C36.6337 17.447 36.9544 17.3733 37.223 17.226C37.4917 17.0787 37.6997 16.875 37.847 16.615C37.9944 16.355 38.068 16.0473 38.068 15.692V15.302L36.274 15.666C35.9014 15.744 35.6327 15.861 35.468 16.017C35.312 16.1643 35.234 16.3593 35.234 16.602C35.234 16.8707 35.3207 17.0787 35.494 17.226C35.676 17.3733 35.9317 17.447 36.261 17.447ZM43.8175 18.656C43.2282 18.656 42.7168 18.5087 42.2835 18.214C41.8588 17.9193 41.5295 17.499 41.2955 16.953C41.0615 16.407 40.9445 15.7657 40.9445 15.029C40.9445 14.2923 41.0615 13.651 41.2955 13.105C41.5295 12.559 41.8632 12.1387 42.2965 11.844C42.7298 11.5493 43.2368 11.402 43.8175 11.402C44.3028 11.402 44.7275 11.5017 45.0915 11.701C45.4642 11.9003 45.7458 12.182 45.9365 12.546V9.27H47.6005V18.5H46.0145L45.9755 17.473C45.7848 17.8457 45.4988 18.136 45.1175 18.344C44.7362 18.552 44.3028 18.656 43.8175 18.656ZM44.3245 17.304C44.6712 17.304 44.9615 17.2173 45.1955 17.044C45.4382 16.8707 45.6202 16.615 45.7415 16.277C45.8715 15.9303 45.9365 15.5143 45.9365 15.029C45.9365 14.535 45.8715 14.119 45.7415 13.781C45.6202 13.443 45.4382 13.1873 45.1955 13.014C44.9615 12.8407 44.6712 12.754 44.3245 12.754C43.8218 12.754 43.4188 12.9577 43.1155 13.365C42.8208 13.7637 42.6735 14.3183 42.6735 15.029C42.6735 15.7223 42.8208 16.277 43.1155 16.693C43.4188 17.1003 43.8218 17.304 44.3245 17.304ZM51.7648 18.656C51.1754 18.656 50.6641 18.5087 50.2308 18.214C49.8061 17.9193 49.4768 17.499 49.2428 16.953C49.0088 16.407 48.8918 15.7657 48.8918 15.029C48.8918 14.2923 49.0088 13.651 49.2428 13.105C49.4768 12.559 49.8104 12.1387 50.2438 11.844C50.6771 11.5493 51.1841 11.402 51.7648 11.402C52.2501 11.402 52.6748 11.5017 53.0388 11.701C53.4114 11.9003 53.6931 12.182 53.8838 12.546V9.27H55.5478V18.5H53.9618L53.9228 17.473C53.7321 17.8457 53.4461 18.136 53.0648 18.344C52.6834 18.552 52.2501 18.656 51.7648 18.656ZM52.2718 17.304C52.6184 17.304 52.9088 17.2173 53.1428 17.044C53.3854 16.8707 53.5674 16.615 53.6888 16.277C53.8188 15.9303 53.8838 15.5143 53.8838 15.029C53.8838 14.535 53.8188 14.119 53.6888 13.781C53.5674 13.443 53.3854 13.1873 53.1428 13.014C52.9088 12.8407 52.6184 12.754 52.2718 12.754C51.7691 12.754 51.3661 12.9577 51.0628 13.365C50.7681 13.7637 50.6208 14.3183 50.6208 15.029C50.6208 15.7223 50.7681 16.277 51.0628 16.693C51.3661 17.1003 51.7691 17.304 52.2718 17.304Z" fill="white"/>
</svg>
