<svg width="88" height="108" viewBox="0 0 88 108" fill="none" xmlns="http://www.w3.org/2000/svg">
<path d="M50.3906 107.328C49.7969 107.328 49.2812 107.125 48.8438 106.719C48.4375 106.344 48.1875 105.828 48.0938 105.172C47.375 100.047 46.5938 95.7344 45.75 92.2344C44.9375 88.7656 43.8438 85.9062 42.4688 83.6562C41.0938 81.4062 39.2812 79.6094 37.0312 78.2656C34.8125 76.9219 31.9688 75.8438 28.5 75.0312C25.0625 74.1875 20.8125 73.4375 15.75 72.7812C15.0625 72.7188 14.5156 72.4688 14.1094 72.0312C13.7031 71.5938 13.5 71.0625 13.5 70.4375C13.5 69.8438 13.7031 69.3281 14.1094 68.8906C14.5156 68.4531 15.0625 68.2031 15.75 68.1406C20.8125 67.5781 25.0781 66.9062 28.5469 66.125C32.0156 65.3438 34.875 64.2656 37.125 62.8906C39.375 61.5156 41.1875 59.6875 42.5625 57.4062C43.9375 55.125 45.0312 52.2344 45.8438 48.7344C46.6875 45.2031 47.4375 40.8594 48.0938 35.7031C48.1875 35.0781 48.4375 34.5781 48.8438 34.2031C49.2812 33.7969 49.7969 33.5938 50.3906 33.5938C51.0156 33.5938 51.5312 33.7969 51.9375 34.2031C52.3438 34.5781 52.6094 35.0781 52.7344 35.7031C53.3906 40.8594 54.125 45.2031 54.9375 48.7344C55.7812 52.2344 56.875 55.125 58.2188 57.4062C59.5938 59.6875 61.4062 61.5156 63.6562 62.8906C65.9062 64.2656 68.7656 65.3438 72.2344 66.125C75.7031 66.9062 79.9844 67.5781 85.0781 68.1406C85.7344 68.2031 86.2656 68.4531 86.6719 68.8906C87.0781 69.3281 87.2812 69.8438 87.2812 70.4375C87.2812 71.0625 87.0781 71.5938 86.6719 72.0312C86.2656 72.4688 85.7344 72.7188 85.0781 72.7812C79.9844 73.3438 75.7031 74.0156 72.2344 74.7969C68.7656 75.5781 65.9062 76.6562 63.6562 78.0312C61.4062 79.375 59.5938 81.1875 58.2188 83.4688C56.875 85.75 55.7812 88.6562 54.9375 92.1875C54.125 95.7188 53.3906 100.047 52.7344 105.172C52.6094 105.828 52.3438 106.344 51.9375 106.719C51.5312 107.125 51.0156 107.328 50.3906 107.328ZM18.6094 55.4844C17.6719 55.4844 17.1406 54.9688 17.0156 53.9375C16.6406 50.8125 16.2344 48.3594 15.7969 46.5781C15.3906 44.7969 14.7188 43.4688 13.7812 42.5938C12.875 41.6875 11.5 41 9.65625 40.5312C7.84375 40.0625 5.34375 39.5625 2.15625 39.0312C1.09375 38.875 0.5625 38.3438 0.5625 37.4375C0.5625 36.5625 1.03125 36.0469 1.96875 35.8906C5.1875 35.2656 7.71875 34.7188 9.5625 34.25C11.4062 33.75 12.7969 33.0625 13.7344 32.1875C14.6719 31.3125 15.3594 30.0156 15.7969 28.2969C16.2344 26.5469 16.6406 24.1094 17.0156 20.9844C17.1406 19.9531 17.6719 19.4375 18.6094 19.4375C19.5469 19.4375 20.0781 19.9375 20.2031 20.9375C20.6094 24.0937 21.0156 26.5781 21.4219 28.3906C21.8594 30.2031 22.5312 31.5781 23.4375 32.5156C24.375 33.4219 25.7656 34.0938 27.6094 34.5312C29.4531 34.9688 32 35.4219 35.25 35.8906C35.6562 35.9219 35.9844 36.0781 36.2344 36.3594C36.5156 36.6406 36.6562 37 36.6562 37.4375C36.6562 38.3125 36.1875 38.8438 35.25 39.0312C32 39.6562 29.4531 40.2188 27.6094 40.7188C25.7969 41.1875 24.4219 41.875 23.4844 42.7812C22.5781 43.6562 21.9062 44.9688 21.4688 46.7188C21.0312 48.4688 20.6094 50.9062 20.2031 54.0312C20.1406 54.4375 19.9688 54.7812 19.6875 55.0625C19.4062 55.3438 19.0469 55.4844 18.6094 55.4844ZM41.2969 23.2344C40.7031 23.2344 40.3594 22.9219 40.2656 22.2969C39.8906 20.3906 39.5625 18.8906 39.2812 17.7969C39.0312 16.7031 38.625 15.875 38.0625 15.3125C37.5312 14.7187 36.7031 14.25 35.5781 13.9062C34.4531 13.5625 32.875 13.2187 30.8438 12.875C30.2188 12.75 29.9062 12.3906 29.9062 11.7969C29.9062 11.2344 30.2188 10.8906 30.8438 10.7656C32.875 10.3906 34.4531 10.0469 35.5781 9.73438C36.7031 9.39063 37.5312 8.9375 38.0625 8.375C38.625 7.78125 39.0312 6.9375 39.2812 5.84375C39.5625 4.75 39.8906 3.25 40.2656 1.34375C40.3594 0.71875 40.7031 0.40625 41.2969 0.40625C41.8594 0.40625 42.2031 0.71875 42.3281 1.34375C42.6719 3.25 42.9844 4.75 43.2656 5.84375C43.5469 6.9375 43.9531 7.78125 44.4844 8.375C45.0469 8.9375 45.8906 9.39063 47.0156 9.73438C48.1406 10.0469 49.7188 10.3906 51.75 10.7656C52.375 10.8906 52.6875 11.2344 52.6875 11.7969C52.6875 12.3906 52.375 12.75 51.75 12.875C49.7188 13.2187 48.1406 13.5625 47.0156 13.9062C45.8906 14.25 45.0469 14.7187 44.4844 15.3125C43.9531 15.875 43.5469 16.7031 43.2656 17.7969C42.9844 18.8906 42.6719 20.3906 42.3281 22.2969C42.2031 22.9219 41.8594 23.2344 41.2969 23.2344Z" fill="url(#paint0_linear_689_1400)"/>
<defs>
<linearGradient id="paint0_linear_689_1400" x1="9.5" y1="29.5" x2="71" y2="87.5" gradientUnits="userSpaceOnUse">
<stop stop-color="#59168B"/>
<stop offset="1" stop-color="#F2622D"/>
</linearGradient>
</defs>
</svg>
