<svg width="140" height="43" viewBox="0 0 140 43" fill="none" xmlns="http://www.w3.org/2000/svg">
<path d="M1.62551 8.46753C1.00454 8.46753 0.5 10.6502 0.5 13.3626C0.5 16.075 1.00454 18.2788 1.62551 18.2788C2.24647 18.2788 2.75101 16.075 2.75101 13.3626C2.75101 10.6502 2.24647 8.46753 1.62551 8.46753Z" fill="#A238FF"/>
<path d="M34.6327 3.46651C34.0506 3.46651 33.5266 4.88629 33.1579 7.13251C32.5758 3.25461 31.6249 0.73291 30.5576 0.73291C29.2769 0.73291 28.1902 4.29295 27.6662 9.48468C27.1617 5.71273 26.3855 3.31818 25.5123 3.31818C24.2897 3.31818 23.2613 8.04371 22.8731 14.634C22.1552 11.2435 21.1073 9.12443 19.9624 9.12443C18.8174 9.12443 17.7696 11.2435 17.0516 14.634C16.6635 8.04371 15.635 3.31818 14.4124 3.31818C13.5392 3.31818 12.763 5.71273 12.2585 9.48468C11.7539 4.29295 10.6478 0.73291 9.38648 0.73291C8.31919 0.73291 7.36833 3.25461 6.78617 7.13251C6.41747 4.88629 5.89353 3.46651 5.31137 3.46651C4.22467 3.46651 3.33203 8.38276 3.33203 14.4433C3.33203 20.5038 4.22467 25.4201 5.31137 25.4201C5.75769 25.4201 6.18461 24.5937 6.5145 23.1951C7.03844 28.3232 8.12513 31.8409 9.40588 31.8409C10.3956 31.8409 11.2688 29.7218 11.8509 26.3949C12.2585 32.7309 13.2675 37.2233 14.4513 37.2233C15.1887 37.2233 15.8678 35.4433 16.3724 32.5402C16.9739 38.5371 18.3711 42.7329 20.0012 42.7329C21.6312 42.7329 23.009 38.5371 23.63 32.5402C24.1345 35.4433 24.8137 37.2233 25.5511 37.2233C26.7348 37.2233 27.7439 32.7309 28.1514 26.3949C28.7335 29.7218 29.6262 31.8409 30.5964 31.8409C31.8578 31.8409 32.9445 28.3232 33.4878 23.1951C33.8177 24.5937 34.2252 25.4201 34.691 25.4201C35.7777 25.4201 36.6703 20.5038 36.6703 14.4433C36.6703 8.38276 35.7194 3.46651 34.6327 3.46651Z" fill="#A238FF"/>
<path d="M38.3208 8.46753C37.6998 8.46753 37.1953 10.6714 37.1953 13.3838C37.1953 16.0962 37.6998 18.3 38.3208 18.3C38.9418 18.3 39.4463 16.0962 39.4463 13.3838C39.4463 10.6714 38.9418 8.46753 38.3208 8.46753Z" fill="#A238FF"/>
<path d="M66.7891 27.8995H79.4413V23.3646H72.7465V21.2879H79.0338V17.5796H72.7465V15.63H79.4413V11.0952H66.7891V27.8995Z" fill="white"/>
<path d="M80.8789 27.8995H93.5311V23.3646H86.8557V21.2879H93.143V17.5796H86.8557V15.63H93.5505V11.0952H80.8983V27.8995H80.8789Z" fill="white"/>
<path d="M139.5 27.8995C138.646 25.3354 137.423 22.6018 135.813 19.5292C137.714 18.9146 138.84 17.622 138.84 15.6089C138.84 12.5574 136.259 11.1165 132.184 11.1165H123.801V27.8995H129.797V20.9489C131.136 23.4071 132.106 25.7169 132.747 27.8995H139.5ZM129.797 18.5968V15.6301H131.873C132.747 15.6301 133.251 16.1598 133.251 17.1134C133.251 18.067 132.747 18.5968 131.873 18.5968H129.797Z" fill="white"/>
<path d="M109.695 27.8995H122.367V23.3646H115.672V21.2879H121.959V17.5796H115.672V15.63H122.367V11.0952H109.715V27.8995H109.695Z" fill="white"/>
<path d="M94.9836 15.63H101.174C98.6124 17.9186 96.4972 20.5251 94.8672 23.3434V27.8783H108.47V23.3434H101.678C103.231 20.8641 105.404 18.406 108.47 15.63V11.0952H94.9836V15.63Z" fill="white"/>
<path d="M57.7273 11.0952H50.0234V27.8783H57.7273C62.501 27.8783 65.8775 24.403 65.8775 19.4867C65.8775 14.5705 62.501 11.0952 57.7273 11.0952ZM57.3974 23.3434H56.0003V15.63H57.3974C58.8917 15.63 59.6873 16.7108 59.6873 19.4867C59.7067 22.2627 58.8917 23.3434 57.3974 23.3434Z" fill="white"/>
</svg>
