<svg width="69" height="27" viewBox="0 0 69 27" fill="none" xmlns="http://www.w3.org/2000/svg">
<rect x="0.5" y="0.73291" width="68" height="26" rx="12" fill="#A238FF"/>
<path d="M7.69283 18.7329V9.50291H11.2678C12.3512 9.50291 13.1962 9.76291 13.8028 10.2829C14.4095 10.8029 14.7128 11.5222 14.7128 12.4409C14.7128 13.0562 14.5742 13.5892 14.2968 14.0399C14.0195 14.4819 13.6252 14.8199 13.1138 15.0539C12.6025 15.2879 11.9872 15.4049 11.2678 15.4049H9.38283V18.7329H7.69283ZM9.38283 13.9359H11.1898C11.7618 13.9359 12.1995 13.8102 12.5028 13.5589C12.8148 13.3076 12.9708 12.9349 12.9708 12.4409C12.9708 11.9556 12.8148 11.5916 12.5028 11.3489C12.1995 11.0976 11.7618 10.9719 11.1898 10.9719H9.38283V13.9359ZM16.1068 18.7329V11.7909H17.6668L17.7318 13.7149L17.5888 13.6889C17.6928 13.0216 17.8878 12.5406 18.1738 12.2459C18.4684 11.9426 18.8671 11.7909 19.3698 11.7909H20.0068V13.2209H19.3568C19.0014 13.2209 18.7068 13.2729 18.4728 13.3769C18.2388 13.4809 18.0611 13.6456 17.9398 13.8709C17.8271 14.0876 17.7708 14.3736 17.7708 14.7289V18.7329H16.1068ZM23.9086 18.8889C23.2153 18.8889 22.6129 18.7416 22.1016 18.4469C21.5903 18.1436 21.1959 17.7189 20.9186 17.1729C20.6413 16.6269 20.5026 15.9899 20.5026 15.2619C20.5026 14.5339 20.6413 13.9012 20.9186 13.3639C21.1959 12.8179 21.5859 12.3932 22.0886 12.0899C22.5999 11.7866 23.1936 11.6349 23.8696 11.6349C24.5283 11.6349 25.1046 11.7822 25.5986 12.0769C26.1013 12.3716 26.4869 12.7962 26.7556 13.3509C27.0243 13.9056 27.1586 14.5729 27.1586 15.3529V15.7299H22.2316C22.2663 16.3366 22.4309 16.7959 22.7256 17.1079C23.0289 17.4112 23.4276 17.5629 23.9216 17.5629C24.2943 17.5629 24.6019 17.4806 24.8446 17.3159C25.0959 17.1426 25.2693 16.9042 25.3646 16.6009L27.0676 16.7049C26.8769 17.3809 26.4999 17.9139 25.9366 18.3039C25.3819 18.6939 24.7059 18.8889 23.9086 18.8889ZM22.2316 14.6119H25.4426C25.4079 14.0486 25.2476 13.6326 24.9616 13.3639C24.6756 13.0866 24.3116 12.9479 23.8696 12.9479C23.4276 12.9479 23.0593 13.0909 22.7646 13.3769C22.4786 13.6629 22.3009 14.0746 22.2316 14.6119ZM28.1833 15.6389V14.2349H32.6033V15.6389H28.1833ZM36.8409 18.8889C36.1562 18.8889 35.5799 18.7892 35.1119 18.5899C34.6525 18.3906 34.2972 18.1132 34.0459 17.7579C33.7945 17.4026 33.6515 16.9996 33.6169 16.5489L35.3199 16.4709C35.3805 16.8349 35.5322 17.1166 35.7749 17.3159C36.0175 17.5152 36.3772 17.6149 36.8539 17.6149C37.2439 17.6149 37.5472 17.5542 37.7639 17.4329C37.9892 17.3029 38.1019 17.1036 38.1019 16.8349C38.1019 16.6789 38.0629 16.5489 37.9849 16.4449C37.9069 16.3409 37.7595 16.2499 37.5429 16.1719C37.3262 16.0939 37.0055 16.0159 36.5809 15.9379C35.8702 15.8166 35.3112 15.6692 34.9039 15.4959C34.4965 15.3139 34.2062 15.0886 34.0329 14.8199C33.8682 14.5512 33.7859 14.2176 33.7859 13.8189C33.7859 13.1689 34.0329 12.6446 34.5269 12.2459C35.0295 11.8386 35.7619 11.6349 36.7239 11.6349C37.3479 11.6349 37.8722 11.7389 38.2969 11.9469C38.7215 12.1462 39.0509 12.4236 39.2849 12.7789C39.5275 13.1256 39.6792 13.5242 39.7399 13.9749L38.0629 14.0529C38.0195 13.8189 37.9415 13.6152 37.8289 13.4419C37.7162 13.2686 37.5645 13.1386 37.3739 13.0519C37.1832 12.9566 36.9579 12.9089 36.6979 12.9089C36.3079 12.9089 36.0132 12.9869 35.8139 13.1429C35.6145 13.2989 35.5149 13.5069 35.5149 13.7669C35.5149 13.9489 35.5582 14.1006 35.6449 14.2219C35.7402 14.3432 35.8919 14.4429 36.0999 14.5209C36.3079 14.5902 36.5852 14.6552 36.9319 14.7159C37.6599 14.8286 38.2319 14.9759 38.6479 15.1579C39.0725 15.3312 39.3715 15.5566 39.5449 15.8339C39.7269 16.1026 39.8179 16.4276 39.8179 16.8089C39.8179 17.2509 39.6922 17.6279 39.4409 17.9399C39.1982 18.2519 38.8515 18.4902 38.4009 18.6549C37.9589 18.8109 37.4389 18.8889 36.8409 18.8889ZM43.2331 18.8889C42.5051 18.8889 41.9201 18.7242 41.4781 18.3949C41.0361 18.0569 40.8151 17.5889 40.8151 16.9909C40.8151 16.3929 41.0014 15.9249 41.3741 15.5869C41.7468 15.2489 42.3144 15.0062 43.0771 14.8589L45.3781 14.4039C45.3781 13.9099 45.2654 13.5416 45.0401 13.2989C44.8148 13.0476 44.4811 12.9219 44.0391 12.9219C43.6404 12.9219 43.3241 13.0172 43.0901 13.2079C42.8648 13.3899 42.7088 13.6542 42.6221 14.0009L40.9321 13.9229C41.0708 13.1862 41.4088 12.6229 41.9461 12.2329C42.4834 11.8342 43.1811 11.6349 44.0391 11.6349C45.0271 11.6349 45.7724 11.8862 46.2751 12.3889C46.7864 12.8829 47.0421 13.5936 47.0421 14.5209V17.0429C47.0421 17.2249 47.0724 17.3506 47.1331 17.4199C47.2024 17.4892 47.3021 17.5239 47.4321 17.5239H47.6531V18.7329C47.6011 18.7502 47.5144 18.7632 47.3931 18.7719C47.2804 18.7806 47.1634 18.7849 47.0421 18.7849C46.7561 18.7849 46.5004 18.7416 46.2751 18.6549C46.0498 18.5596 45.8764 18.3992 45.7551 18.1739C45.6338 17.9399 45.5731 17.6236 45.5731 17.2249L45.7161 17.3289C45.6468 17.6322 45.4951 17.9052 45.2611 18.1479C45.0358 18.3819 44.7498 18.5639 44.4031 18.6939C44.0564 18.8239 43.6664 18.8889 43.2331 18.8889ZM43.5711 17.6799C43.9438 17.6799 44.2644 17.6062 44.5331 17.4589C44.8018 17.3116 45.0098 17.1079 45.1571 16.8479C45.3044 16.5879 45.3781 16.2802 45.3781 15.9249V15.5349L43.5841 15.8989C43.2114 15.9769 42.9428 16.0939 42.7781 16.2499C42.6221 16.3972 42.5441 16.5922 42.5441 16.8349C42.5441 17.1036 42.6308 17.3116 42.8041 17.4589C42.9861 17.6062 43.2418 17.6799 43.5711 17.6799ZM50.2509 18.7329L47.7159 11.7909H49.4709L51.2389 17.0559L53.0069 11.7909H54.7619L52.2269 18.7329H50.2509ZM58.5795 18.8889C57.8862 18.8889 57.2838 18.7416 56.7725 18.4469C56.2612 18.1436 55.8668 17.7189 55.5895 17.1729C55.3122 16.6269 55.1735 15.9899 55.1735 15.2619C55.1735 14.5339 55.3122 13.9012 55.5895 13.3639C55.8668 12.8179 56.2568 12.3932 56.7595 12.0899C57.2708 11.7866 57.8645 11.6349 58.5405 11.6349C59.1992 11.6349 59.7755 11.7822 60.2695 12.0769C60.7722 12.3716 61.1578 12.7962 61.4265 13.3509C61.6952 13.9056 61.8295 14.5729 61.8295 15.3529V15.7299H56.9025C56.9372 16.3366 57.1018 16.7959 57.3965 17.1079C57.6998 17.4112 58.0985 17.5629 58.5925 17.5629C58.9652 17.5629 59.2728 17.4806 59.5155 17.3159C59.7668 17.1426 59.9402 16.9042 60.0355 16.6009L61.7385 16.7049C61.5478 17.3809 61.1708 17.9139 60.6075 18.3039C60.0528 18.6939 59.3768 18.8889 58.5795 18.8889ZM56.9025 14.6119H60.1135C60.0788 14.0486 59.9185 13.6326 59.6325 13.3639C59.3465 13.0866 58.9825 12.9479 58.5405 12.9479C58.0985 12.9479 57.7302 13.0909 57.4355 13.3769C57.1495 13.6629 56.9718 14.0746 56.9025 14.6119Z" fill="white"/>
</svg>
