<svg width="140" height="27" viewBox="0 0 140 27" fill="none" xmlns="http://www.w3.org/2000/svg">
<path fill-rule="evenodd" clip-rule="evenodd" d="M42.9282 7.14542V5.48944C42.9269 5.43382 42.937 5.37853 42.9578 5.32693C42.9786 5.27534 43.0097 5.2285 43.0492 5.1893C43.0887 5.1501 43.1357 5.11934 43.1875 5.09891C43.2392 5.07847 43.2946 5.06879 43.3502 5.07043H50.8132C50.8692 5.06841 50.925 5.07773 50.9773 5.09787C51.0296 5.11801 51.0773 5.14853 51.1175 5.18759C51.1577 5.22665 51.1895 5.27343 51.2111 5.32513C51.2327 5.37684 51.2436 5.4324 51.2432 5.48843V6.90942C51.149 7.29977 50.9554 7.65909 50.6812 7.95242L46.8142 13.4424C48.2892 13.3623 49.7588 13.6764 51.0722 14.3524C51.19 14.4152 51.289 14.5081 51.3593 14.6215C51.4295 14.735 51.4685 14.865 51.4722 14.9984V16.7654C51.4735 16.8316 51.4585 16.8971 51.4283 16.956C51.3981 17.0149 51.3538 17.0655 51.2993 17.103C51.2448 17.1406 51.1817 17.164 51.1159 17.1713C51.0501 17.1785 50.9836 17.1693 50.9222 17.1444C49.7006 16.5207 48.348 16.1967 46.9764 16.1993C45.6048 16.2019 44.2534 16.531 43.0342 17.1594C42.7752 17.2974 42.5032 17.0194 42.5032 16.7754V15.0954C42.4796 14.6968 42.5765 14.3003 42.7812 13.9574L47.2612 7.56644H43.3612C43.3047 7.56904 43.2482 7.56003 43.1953 7.53995C43.1423 7.51987 43.0941 7.48916 43.0535 7.44971C43.013 7.41025 42.9809 7.36288 42.9594 7.31055C42.9378 7.25821 42.9272 7.20201 42.9282 7.14542ZM15.6982 17.4904H13.4272C13.325 17.4859 13.2278 17.4449 13.1533 17.3748C13.0788 17.3047 13.0319 17.2102 13.0212 17.1084V5.51743C13.0225 5.46126 13.0348 5.4059 13.0576 5.35452C13.0803 5.30315 13.113 5.25676 13.1536 5.21802C13.1943 5.17928 13.2423 5.14896 13.2947 5.12878C13.3471 5.1086 13.403 5.09897 13.4592 5.10043H15.5742C15.6787 5.10345 15.7785 5.14473 15.8546 5.21643C15.9308 5.28813 15.9779 5.38528 15.9872 5.48944V7.00043H16.0302C16.2361 6.37576 16.6337 5.83195 17.1666 5.44647C17.6995 5.06099 18.3405 4.85349 18.9982 4.85349C19.6559 4.85349 20.2968 5.06099 20.8297 5.44647C21.3626 5.83195 21.7604 6.37576 21.9662 7.00043C22.1803 6.4489 22.5361 5.96359 22.9976 5.59351C23.4592 5.22342 24.0102 4.98164 24.5951 4.89258C25.18 4.80352 25.7779 4.87034 26.3288 5.08627C26.8796 5.3022 27.3637 5.65962 27.7322 6.12244C28.4532 7.09744 28.3052 8.51244 28.3052 9.75644V17.0714C28.3039 17.1276 28.2915 17.1829 28.2688 17.2343C28.2461 17.2857 28.2134 17.3321 28.1727 17.3708C28.1321 17.4096 28.0841 17.4399 28.0317 17.4601C27.9793 17.4803 27.9234 17.4899 27.8672 17.4884H25.5992C25.4911 17.4841 25.3887 17.4386 25.3131 17.3613C25.2374 17.2839 25.1942 17.1806 25.1922 17.0724V10.9274C25.2244 10.2035 25.203 9.47818 25.1282 8.75742C25.0829 8.44819 24.9171 8.16948 24.6669 7.98212C24.4168 7.79475 24.1027 7.71396 23.7932 7.75742C23.4988 7.76587 23.2133 7.86048 22.9721 8.02951C22.7309 8.19854 22.5446 8.43459 22.4362 8.70844C22.2469 9.43228 22.1754 10.1819 22.2242 10.9284V17.0724C22.2229 17.1286 22.2105 17.1839 22.1878 17.2353C22.1651 17.2867 22.1324 17.3331 22.0918 17.3718C22.0511 17.4106 22.0031 17.4409 21.9507 17.4611C21.8983 17.4813 21.8424 17.4909 21.7862 17.4894H19.5132C19.4051 17.4851 19.3027 17.4396 19.2271 17.3623C19.1514 17.2849 19.1082 17.1816 19.1062 17.0734V10.9284C19.1062 9.63544 19.3182 7.73444 17.7062 7.73444C16.0732 7.73444 16.1372 9.58744 16.1372 10.9284V17.0724C16.1361 17.1288 16.1237 17.1843 16.101 17.2359C16.0782 17.2874 16.0455 17.334 16.0047 17.3728C15.9639 17.4117 15.9158 17.4421 15.8632 17.4623C15.8106 17.4825 15.7545 17.492 15.6982 17.4904ZM57.6732 4.85641C61.0432 4.85641 62.8662 7.73443 62.8662 11.3934C62.8662 14.9294 60.8532 17.7344 57.6732 17.7344C54.3662 17.7344 52.5632 14.8554 52.5632 11.2704C52.5632 7.66142 54.3862 4.85641 57.6732 4.85641ZM57.6932 7.22241C56.0182 7.22241 55.9132 9.49043 55.9132 10.9054C55.9132 12.3204 55.8922 15.3444 57.6732 15.3444C59.4332 15.3444 59.5172 12.9054 59.5172 11.4184C59.554 10.3831 59.4398 9.34787 59.1782 8.34543C59.1072 8.01088 58.918 7.71312 58.6452 7.50684C58.3724 7.30055 58.0344 7.19957 57.6932 7.22241ZM67.2382 17.4904H64.9752C64.867 17.4861 64.7645 17.4407 64.6887 17.3633C64.6128 17.286 64.5694 17.1827 64.5672 17.0744V5.47943C64.5799 5.37322 64.6316 5.27555 64.7124 5.20547C64.7932 5.1354 64.8973 5.09794 65.0042 5.10043H67.1102C67.203 5.10428 67.2921 5.138 67.3642 5.19656C67.4362 5.25513 67.4874 5.33538 67.5102 5.42542V7.20044H67.5532C68.1892 5.61444 69.0792 4.85843 70.6532 4.85843C71.176 4.83347 71.696 4.94655 72.1612 5.18634C72.6264 5.42613 73.0202 5.78416 73.3032 6.22443C73.8028 7.35831 74.0071 8.60026 73.8972 9.83444V17.1274C73.8814 17.2308 73.8285 17.3248 73.7485 17.3919C73.6684 17.4591 73.5667 17.4948 73.4622 17.4924H71.1862C71.0876 17.4872 70.9938 17.448 70.9209 17.3814C70.848 17.3149 70.8004 17.2251 70.7862 17.1274V10.8344C70.7862 9.56544 70.9352 7.71143 69.3662 7.71143C69.0812 7.7234 68.8056 7.81719 68.5724 7.98157C68.3392 8.14595 68.1583 8.37398 68.0512 8.63843C67.771 9.33641 67.6477 10.0875 67.6902 10.8384V17.0794C67.6845 17.1938 67.6337 17.3012 67.549 17.3782C67.4643 17.4553 67.3525 17.4956 67.2382 17.4904ZM39.2672 17.4614C39.1939 17.5238 39.1032 17.5623 39.0073 17.5716C38.9115 17.5809 38.8152 17.5606 38.7312 17.5134C38.2108 17.0961 37.7704 16.5879 37.4312 16.0134C36.9803 16.5626 36.4061 16.9976 35.7553 17.2829C35.1046 17.5683 34.3956 17.6959 33.6862 17.6554C33.2217 17.6846 32.7565 17.6125 32.3226 17.4442C31.8888 17.2759 31.4966 17.0154 31.1733 16.6806C30.85 16.3459 30.6032 15.945 30.45 15.5055C30.2969 15.0661 30.241 14.5986 30.2862 14.1354C30.2606 13.3457 30.4795 12.5672 30.913 11.9066C31.3466 11.2459 31.9735 10.7353 32.7082 10.4444C34.0891 9.98811 35.5263 9.72463 36.9792 9.66144V9.36844C37.0501 8.80751 36.9541 8.23809 36.7032 7.73141C36.5535 7.5385 36.3596 7.38446 36.1379 7.28229C35.9161 7.18012 35.6731 7.13285 35.4292 7.14444C35.0123 7.1112 34.5975 7.23029 34.2617 7.47964C33.9259 7.729 33.6919 8.0917 33.6032 8.50043C33.5913 8.60317 33.5463 8.69925 33.4751 8.77426C33.4038 8.84927 33.3102 8.89915 33.2082 8.91641L31.0082 8.67941C30.9543 8.6721 30.9025 8.65389 30.8559 8.62585C30.8092 8.59782 30.7688 8.56057 30.7371 8.51639C30.7053 8.47221 30.683 8.42202 30.6713 8.3689C30.6596 8.31577 30.6589 8.26084 30.6692 8.20743C31.1752 5.55243 33.5872 4.74942 35.7482 4.74942C36.986 4.70218 38.1997 5.10105 39.1682 5.87341C40.2732 6.89941 40.1682 8.27344 40.1682 9.76044V13.2784C40.1775 14.0597 40.484 14.808 41.0252 15.3714C41.0642 15.4113 41.0949 15.4584 41.1157 15.5101C41.1364 15.5619 41.1467 15.6172 41.1461 15.6729C41.1454 15.7286 41.1338 15.7836 41.1118 15.8349C41.0899 15.8861 41.0581 15.9325 41.0182 15.9714C40.5542 16.3584 39.7302 17.0714 39.2762 17.4714L39.2672 17.4614ZM36.9782 11.9554V11.4664C35.3352 11.4664 33.6002 11.8154 33.6002 13.7394C33.6002 14.7174 34.1102 15.3774 34.9802 15.3774C35.31 15.3625 35.6298 15.2595 35.9063 15.079C36.1827 14.8986 36.4058 14.6473 36.5522 14.3514C36.9161 13.6085 37.0638 12.7782 36.9782 11.9554ZM9.49519 17.4614C9.42188 17.5238 9.3312 17.5623 9.23537 17.5716C9.13953 17.5809 9.04313 17.5606 8.95918 17.5134C8.43846 17.0964 7.99797 16.5881 7.65919 16.0134C7.20841 16.5625 6.63436 16.9974 5.98378 17.2827C5.3332 17.568 4.62443 17.6957 3.91518 17.6554C3.45072 17.6846 2.98546 17.6125 2.55159 17.4442C2.11772 17.2759 1.72561 17.0154 1.4023 16.6806C1.07898 16.3459 0.832193 15.945 0.679031 15.5055C0.52587 15.0661 0.469993 14.5986 0.515213 14.1354C0.489458 13.3456 0.708328 12.5671 1.14186 11.9065C1.57539 11.2458 2.20242 10.7352 2.93721 10.4444C4.31775 9.98826 5.7546 9.72479 7.20717 9.66144V9.36844C7.27821 8.80761 7.1826 8.23825 6.93221 7.73141C6.7824 7.53842 6.58833 7.38434 6.36641 7.28217C6.14449 7.17999 5.90121 7.13277 5.65718 7.14444C5.24038 7.11124 4.82569 7.23036 4.49007 7.47974C4.15444 7.72911 3.92067 8.09178 3.83217 8.50043C3.8202 8.60317 3.77528 8.69925 3.70406 8.77426C3.63283 8.84927 3.5392 8.89915 3.43721 8.91641L1.2372 8.67941C1.1833 8.6721 1.13147 8.65389 1.08485 8.62585C1.03824 8.59782 0.99781 8.56057 0.96608 8.51639C0.93435 8.47221 0.911958 8.42202 0.900284 8.3689C0.88861 8.31577 0.887924 8.26084 0.898209 8.20743C1.40421 5.55243 3.81519 4.74942 5.97719 4.74942C7.21536 4.70212 8.42937 5.10098 9.39821 5.87341C10.4982 6.89941 10.3982 8.27344 10.3982 9.76044V13.2784C10.4076 14.0596 10.714 14.808 11.2552 15.3714C11.3337 15.452 11.377 15.5604 11.3757 15.6729C11.3744 15.7853 11.3285 15.8927 11.2482 15.9714C10.7842 16.3584 9.95918 17.0714 9.50618 17.4714L9.49519 17.4614ZM7.20522 11.9554V11.4664C5.56322 11.4664 3.82722 11.8154 3.82722 13.7394C3.82722 14.7174 4.33821 15.3774 5.20821 15.3774C5.53819 15.3627 5.85818 15.2597 6.13484 15.0793C6.4115 14.8988 6.63471 14.6475 6.7812 14.3514C7.14438 13.6083 7.29132 12.778 7.20522 11.9554ZM46.0132 21.9404C41.7492 25.0694 35.5692 26.7324 30.2462 26.7324C23.142 26.7714 16.2772 24.1673 10.9862 19.4264C10.5862 19.0684 10.9432 18.5784 11.4232 18.8564C17.297 22.1943 23.9383 23.9464 30.6942 23.9404C35.7429 23.9164 40.7375 22.9001 45.3942 20.9494C46.1132 20.6464 46.7192 21.4224 46.0132 21.9404ZM47.7872 19.9264C47.2412 19.2324 44.1872 19.5974 42.8082 19.7614C42.3922 19.8114 42.3272 19.4494 42.7022 19.1874C45.1432 17.4874 49.1422 17.9754 49.6022 18.5454C50.0622 19.1154 49.4792 23.1074 47.1922 25.0104C46.8402 25.3034 46.5062 25.1474 46.6622 24.7604C47.1822 23.4824 48.3332 20.6214 47.7872 19.9264ZM120.115 15.5074C120.322 15.3531 120.488 15.1498 120.597 14.9158C120.706 14.6817 120.756 14.4243 120.741 14.1664C120.748 13.9901 120.717 13.8144 120.651 13.6506C120.586 13.4869 120.486 13.3386 120.36 13.2154C119.949 12.8849 119.479 12.6367 118.974 12.4844L116.892 11.7044C115.078 11.0378 114.171 9.89977 114.169 8.29044C114.156 7.79574 114.262 7.3051 114.477 6.85956C114.693 6.41401 115.011 6.0265 115.407 5.72943C116.348 5.0436 117.494 4.69961 118.657 4.75443C119.72 4.75481 120.775 4.94479 121.771 5.31543C121.932 5.35828 122.077 5.44729 122.187 5.57144C122.279 5.71207 122.323 5.87881 122.311 6.04642V6.70541C122.311 6.99741 122.205 7.14377 121.992 7.14444C121.8 7.12877 121.61 7.08774 121.428 7.02243C120.569 6.76342 119.677 6.632 118.78 6.63242C117.211 6.63242 116.426 7.16043 116.426 8.21643C116.417 8.40157 116.447 8.58659 116.515 8.75906C116.583 8.93154 116.687 9.08748 116.82 9.21643C117.285 9.57008 117.807 9.84072 118.364 10.0164L120.277 10.7484C121.072 11.0112 121.788 11.468 122.361 12.0774C122.803 12.6427 123.028 13.3468 122.997 14.0634C123.016 14.593 122.907 15.1193 122.681 15.5986C122.455 16.0778 122.118 16.496 121.697 16.8184C120.695 17.5436 119.475 17.9049 118.239 17.8424C116.973 17.862 115.715 17.6298 114.539 17.1594C114.383 17.1063 114.243 17.014 114.133 16.8914C114.048 16.7524 114.009 16.59 114.022 16.4274V15.7444C114.022 15.4514 114.122 15.3054 114.316 15.3054C114.526 15.3267 114.733 15.3758 114.93 15.4514C116.017 15.7941 117.15 15.9668 118.289 15.9634C118.93 16.0084 119.569 15.8487 120.113 15.5074H120.115ZM109.26 5.60742C109.251 5.54099 109.258 5.47337 109.279 5.40988C109.301 5.34639 109.337 5.28876 109.384 5.24155C109.432 5.19433 109.49 5.1588 109.553 5.13779C109.617 5.11677 109.685 5.11083 109.751 5.12042H111.197C111.264 5.1107 111.332 5.11654 111.395 5.13748C111.459 5.15842 111.517 5.19388 111.565 5.24109C111.613 5.2883 111.649 5.34598 111.671 5.40955C111.692 5.47311 111.699 5.54084 111.69 5.60742V16.9934C111.699 17.0602 111.693 17.1281 111.671 17.192C111.65 17.2558 111.614 17.3137 111.566 17.3612C111.518 17.4086 111.46 17.4443 111.396 17.4653C111.332 17.4864 111.264 17.4922 111.197 17.4824H110.145C110.011 17.4898 109.878 17.4548 109.764 17.3824C109.659 17.288 109.594 17.1572 109.581 17.0164L109.408 16.1624C108.073 17.2193 106.428 17.8103 104.725 17.8454C104.236 17.8775 103.746 17.8074 103.286 17.6395C102.826 17.4717 102.406 17.2097 102.052 16.8704C101.391 16.1104 101.056 15.1206 101.12 14.1154V5.60641C101.111 5.54004 101.117 5.47244 101.139 5.40894C101.16 5.34543 101.196 5.28778 101.244 5.24054C101.291 5.1933 101.349 5.15777 101.413 5.13675C101.476 5.11573 101.544 5.10978 101.61 5.11942H103.057C103.124 5.10961 103.191 5.11541 103.255 5.13635C103.319 5.15729 103.377 5.19282 103.425 5.24008C103.472 5.28735 103.508 5.34504 103.53 5.40863C103.551 5.47222 103.557 5.53994 103.548 5.60641V13.3364C103.493 14.0223 103.675 14.7063 104.063 15.2744C104.272 15.4955 104.529 15.6664 104.813 15.7741C105.098 15.8818 105.403 15.9237 105.706 15.8964C106.981 15.865 108.218 15.4577 109.261 14.7254L109.26 5.60742ZM96.1132 17.4824C96.0466 17.4921 95.9788 17.4861 95.9149 17.465C95.8511 17.4439 95.793 17.4082 95.7454 17.3607C95.6977 17.3133 95.6618 17.2554 95.6405 17.1916C95.6191 17.1279 95.6128 17.06 95.6222 16.9934V9.09341C95.6703 8.45838 95.5064 7.82534 95.1562 7.29343C94.9734 7.08824 94.7452 6.92852 94.4899 6.82697C94.2345 6.72541 93.959 6.68484 93.6852 6.70844C92.4067 6.73577 91.1607 7.1165 90.0852 7.80844C90.1022 7.92969 90.1106 8.052 90.1102 8.17444V16.9994C90.1196 17.066 90.1134 17.1339 90.092 17.1976C90.0706 17.2614 90.0347 17.3193 89.987 17.3667C89.9394 17.4142 89.8813 17.4499 89.8175 17.471C89.7536 17.4921 89.6858 17.4981 89.6192 17.4884H88.1722C88.1057 17.4981 88.0378 17.4922 87.974 17.4711C87.9102 17.4499 87.8522 17.4142 87.8046 17.3667C87.7571 17.3193 87.7212 17.2613 87.7 17.1976C87.6787 17.1338 87.6726 17.0659 87.6822 16.9994V9.09943C87.7303 8.46439 87.5664 7.83135 87.2162 7.29944C87.0333 7.09432 86.8052 6.93465 86.5498 6.8331C86.2945 6.73155 86.019 6.6909 85.7452 6.71442C84.4739 6.72284 83.2315 7.09518 82.1652 7.78741V17.0034C82.1748 17.0699 82.1687 17.1378 82.1474 17.2016C82.1262 17.2653 82.0903 17.3232 82.0427 17.3707C81.9952 17.4182 81.9372 17.4539 81.8734 17.4751C81.8096 17.4962 81.7417 17.5021 81.6752 17.4924H80.2282C80.1617 17.5021 80.0938 17.4961 80.0299 17.475C79.9661 17.4539 79.9081 17.4182 79.8604 17.3707C79.8128 17.3233 79.7768 17.2654 79.7554 17.2016C79.7341 17.1379 79.7278 17.07 79.7372 17.0034V5.60843C79.7279 5.54196 79.7343 5.47424 79.7558 5.41064C79.7772 5.34705 79.8132 5.28933 79.8609 5.24207C79.9085 5.1948 79.9665 5.15931 80.0303 5.13837C80.0941 5.11743 80.1618 5.11162 80.2282 5.12143H81.3072C81.4412 5.11416 81.5741 5.14914 81.6872 5.22144C81.7928 5.31563 81.8586 5.44649 81.8712 5.58743L82.0182 6.36743C83.347 5.37658 84.9467 4.81519 86.6032 4.75842C87.2337 4.69437 87.8687 4.82618 88.4216 5.13593C88.9745 5.44567 89.4185 5.9183 89.6932 6.48944C91.0878 5.41367 92.7875 4.80763 94.5482 4.75842C95.0239 4.72727 95.5009 4.79578 95.9486 4.95953C96.3963 5.12329 96.8049 5.37871 97.1482 5.70944C97.7937 6.45799 98.1194 7.43007 98.0552 8.41641V16.9984C98.0645 17.0649 98.0583 17.1327 98.037 17.1964C98.0157 17.26 97.9798 17.3178 97.9323 17.3653C97.8847 17.4127 97.8268 17.4484 97.7631 17.4696C97.6994 17.4908 97.6317 17.4969 97.5652 17.4874L96.1132 17.4824ZM133.563 7.86343C132.877 8.82013 132.555 9.99037 132.655 11.1634V11.4804C132.558 12.6407 132.884 13.7968 133.573 14.7354C133.954 15.1072 134.411 15.3923 134.913 15.5713C135.414 15.7503 135.949 15.8189 136.479 15.7724C137.228 15.7632 137.971 15.6481 138.687 15.4304C138.806 15.3931 138.929 15.3686 139.053 15.3574C139.266 15.3574 139.372 15.5201 139.372 15.8454V16.5034C139.384 16.6642 139.349 16.825 139.272 16.9664C139.17 17.0913 139.034 17.1845 138.881 17.2354C137.994 17.5922 137.043 17.766 136.087 17.7464C135.275 17.8013 134.46 17.6829 133.697 17.3991C132.934 17.1153 132.24 16.6727 131.661 16.1004C130.656 14.7077 130.118 13.0316 130.127 11.3138C130.135 9.59595 130.689 7.92521 131.708 6.54242C132.292 5.95935 132.992 5.50684 133.764 5.21481C134.535 4.92278 135.36 4.79789 136.183 4.84842C137.07 4.84897 137.95 5.00571 138.783 5.31143C138.931 5.35487 139.063 5.43951 139.164 5.55542C139.25 5.70253 139.288 5.87271 139.273 6.04242V6.70142C139.273 7.02642 139.167 7.18842 138.956 7.18842C138.822 7.17958 138.69 7.15508 138.562 7.11542C137.901 6.92174 137.216 6.82308 136.527 6.82242C135.987 6.77162 135.443 6.83839 134.932 7.0181C134.42 7.1978 133.954 7.4862 133.564 7.86343H133.563ZM127.073 5.12042C127.14 5.11079 127.207 5.11671 127.271 5.13773C127.334 5.15874 127.392 5.1943 127.44 5.24155C127.487 5.28879 127.523 5.34644 127.545 5.40994C127.566 5.47345 127.572 5.54104 127.563 5.60742V16.9934C127.573 17.06 127.567 17.1278 127.545 17.1916C127.524 17.2553 127.488 17.3133 127.441 17.3607C127.393 17.4082 127.335 17.4439 127.271 17.4651C127.208 17.4862 127.14 17.4921 127.073 17.4824H125.627C125.561 17.4921 125.493 17.4862 125.429 17.4651C125.365 17.4439 125.307 17.4082 125.26 17.3607C125.212 17.3133 125.176 17.2553 125.155 17.1916C125.134 17.1278 125.128 17.06 125.137 16.9934V5.60843C125.128 5.54205 125.134 5.47442 125.156 5.41092C125.177 5.34741 125.213 5.28977 125.261 5.24252C125.308 5.19528 125.366 5.15975 125.43 5.13873C125.493 5.11771 125.561 5.11179 125.627 5.12143L127.073 5.12042ZM127.479 0.402435C127.738 0.695 127.881 1.0722 127.881 1.46292C127.881 1.85364 127.738 2.23087 127.479 2.52344C127.165 2.78354 126.77 2.92587 126.363 2.92587C125.955 2.92587 125.56 2.78354 125.246 2.52344C124.987 2.23087 124.844 1.85364 124.844 1.46292C124.844 1.0722 124.987 0.695 125.246 0.402435C125.56 0.142335 125.955 0 126.363 0C126.77 0 127.165 0.142335 127.479 0.402435Z" fill="#4400FF"/>
</svg>
