<svg width="91" height="27" viewBox="0 0 91 27" fill="none" xmlns="http://www.w3.org/2000/svg">
<rect x="0.449219" y="0.5" width="90" height="26" rx="12" fill="#1ED760"/>
<path d="M9.14205 18.5V9.27H12.7171C13.8004 9.27 14.6454 9.53 15.2521 10.05C15.8587 10.57 16.1621 11.2893 16.1621 12.208C16.1621 12.8233 16.0234 13.3563 15.7461 13.807C15.4687 14.249 15.0744 14.587 14.5631 14.821C14.0517 15.055 13.4364 15.172 12.7171 15.172H10.8321V18.5H9.14205ZM10.8321 13.703H12.6391C13.2111 13.703 13.6487 13.5773 13.9521 13.326C14.2641 13.0747 14.4201 12.702 14.4201 12.208C14.4201 11.7227 14.2641 11.3587 13.9521 11.116C13.6487 10.8647 13.2111 10.739 12.6391 10.739H10.8321V13.703ZM17.556 18.5V11.558H19.116L19.181 13.482L19.038 13.456C19.142 12.7887 19.337 12.3077 19.623 12.013C19.9177 11.7097 20.3163 11.558 20.819 11.558H21.456V12.988H20.806C20.4507 12.988 20.156 13.04 19.922 13.144C19.688 13.248 19.5103 13.4127 19.389 13.638C19.2763 13.8547 19.22 14.1407 19.22 14.496V18.5H17.556ZM25.3578 18.656C24.6645 18.656 24.0622 18.5087 23.5508 18.214C23.0395 17.9107 22.6452 17.486 22.3678 16.94C22.0905 16.394 21.9518 15.757 21.9518 15.029C21.9518 14.301 22.0905 13.6683 22.3678 13.131C22.6452 12.585 23.0352 12.1603 23.5378 11.857C24.0492 11.5537 24.6428 11.402 25.3188 11.402C25.9775 11.402 26.5538 11.5493 27.0478 11.844C27.5505 12.1387 27.9362 12.5633 28.2048 13.118C28.4735 13.6727 28.6078 14.34 28.6078 15.12V15.497H23.6808C23.7155 16.1037 23.8802 16.563 24.1748 16.875C24.4782 17.1783 24.8768 17.33 25.3708 17.33C25.7435 17.33 26.0512 17.2477 26.2938 17.083C26.5452 16.9097 26.7185 16.6713 26.8138 16.368L28.5168 16.472C28.3262 17.148 27.9492 17.681 27.3858 18.071C26.8312 18.461 26.1552 18.656 25.3578 18.656ZM23.6808 14.379H26.8918C26.8572 13.8157 26.6968 13.3997 26.4108 13.131C26.1248 12.8537 25.7608 12.715 25.3188 12.715C24.8768 12.715 24.5085 12.858 24.2138 13.144C23.9278 13.43 23.7502 13.8417 23.6808 14.379ZM29.6325 15.406V14.002H34.0525V15.406H29.6325ZM38.2901 18.656C37.6054 18.656 37.0291 18.5563 36.5611 18.357C36.1017 18.1577 35.7464 17.8803 35.4951 17.525C35.2437 17.1697 35.1007 16.7667 35.0661 16.316L36.7691 16.238C36.8297 16.602 36.9814 16.8837 37.2241 17.083C37.4667 17.2823 37.8264 17.382 38.3031 17.382C38.6931 17.382 38.9964 17.3213 39.2131 17.2C39.4384 17.07 39.5511 16.8707 39.5511 16.602C39.5511 16.446 39.5121 16.316 39.4341 16.212C39.3561 16.108 39.2087 16.017 38.9921 15.939C38.7754 15.861 38.4547 15.783 38.0301 15.705C37.3194 15.5837 36.7604 15.4363 36.3531 15.263C35.9457 15.081 35.6554 14.8557 35.4821 14.587C35.3174 14.3183 35.2351 13.9847 35.2351 13.586C35.2351 12.936 35.4821 12.4117 35.9761 12.013C36.4787 11.6057 37.2111 11.402 38.1731 11.402C38.7971 11.402 39.3214 11.506 39.7461 11.714C40.1707 11.9133 40.5001 12.1907 40.7341 12.546C40.9767 12.8927 41.1284 13.2913 41.1891 13.742L39.5121 13.82C39.4687 13.586 39.3907 13.3823 39.2781 13.209C39.1654 13.0357 39.0137 12.9057 38.8231 12.819C38.6324 12.7237 38.4071 12.676 38.1471 12.676C37.7571 12.676 37.4624 12.754 37.2631 12.91C37.0637 13.066 36.9641 13.274 36.9641 13.534C36.9641 13.716 37.0074 13.8677 37.0941 13.989C37.1894 14.1103 37.3411 14.21 37.5491 14.288C37.7571 14.3573 38.0344 14.4223 38.3811 14.483C39.1091 14.5957 39.6811 14.743 40.0971 14.925C40.5217 15.0983 40.8207 15.3237 40.9941 15.601C41.1761 15.8697 41.2671 16.1947 41.2671 16.576C41.2671 17.018 41.1414 17.395 40.8901 17.707C40.6474 18.019 40.3007 18.2573 39.8501 18.422C39.4081 18.578 38.8881 18.656 38.2901 18.656ZM44.6823 18.656C43.9543 18.656 43.3693 18.4913 42.9273 18.162C42.4853 17.824 42.2643 17.356 42.2643 16.758C42.2643 16.16 42.4507 15.692 42.8233 15.354C43.196 15.016 43.7637 14.7733 44.5263 14.626L46.8273 14.171C46.8273 13.677 46.7147 13.3087 46.4893 13.066C46.264 12.8147 45.9303 12.689 45.4883 12.689C45.0897 12.689 44.7733 12.7843 44.5393 12.975C44.314 13.157 44.158 13.4213 44.0713 13.768L42.3813 13.69C42.52 12.9533 42.858 12.39 43.3953 12C43.9327 11.6013 44.6303 11.402 45.4883 11.402C46.4763 11.402 47.2217 11.6533 47.7243 12.156C48.2357 12.65 48.4913 13.3607 48.4913 14.288V16.81C48.4913 16.992 48.5217 17.1177 48.5823 17.187C48.6517 17.2563 48.7513 17.291 48.8813 17.291H49.1023V18.5C49.0503 18.5173 48.9637 18.5303 48.8423 18.539C48.7297 18.5477 48.6127 18.552 48.4913 18.552C48.2053 18.552 47.9497 18.5087 47.7243 18.422C47.499 18.3267 47.3257 18.1663 47.2043 17.941C47.083 17.707 47.0223 17.3907 47.0223 16.992L47.1653 17.096C47.096 17.3993 46.9443 17.6723 46.7103 17.915C46.485 18.149 46.199 18.331 45.8523 18.461C45.5057 18.591 45.1157 18.656 44.6823 18.656ZM45.0203 17.447C45.393 17.447 45.7137 17.3733 45.9823 17.226C46.251 17.0787 46.459 16.875 46.6063 16.615C46.7537 16.355 46.8273 16.0473 46.8273 15.692V15.302L45.0333 15.666C44.6607 15.744 44.392 15.861 44.2273 16.017C44.0713 16.1643 43.9933 16.3593 43.9933 16.602C43.9933 16.8707 44.08 17.0787 44.2533 17.226C44.4353 17.3733 44.691 17.447 45.0203 17.447ZM51.7001 18.5L49.1651 11.558H50.9201L52.6881 16.823L54.4561 11.558H56.2111L53.6761 18.5H51.7001ZM60.0287 18.656C59.3354 18.656 58.7331 18.5087 58.2217 18.214C57.7104 17.9107 57.3161 17.486 57.0387 16.94C56.7614 16.394 56.6227 15.757 56.6227 15.029C56.6227 14.301 56.7614 13.6683 57.0387 13.131C57.3161 12.585 57.7061 12.1603 58.2087 11.857C58.7201 11.5537 59.3137 11.402 59.9897 11.402C60.6484 11.402 61.2247 11.5493 61.7187 11.844C62.2214 12.1387 62.6071 12.5633 62.8757 13.118C63.1444 13.6727 63.2787 14.34 63.2787 15.12V15.497H58.3517C58.3864 16.1037 58.5511 16.563 58.8457 16.875C59.1491 17.1783 59.5477 17.33 60.0417 17.33C60.4144 17.33 60.7221 17.2477 60.9647 17.083C61.2161 16.9097 61.3894 16.6713 61.4847 16.368L63.1877 16.472C62.9971 17.148 62.6201 17.681 62.0567 18.071C61.5021 18.461 60.8261 18.656 60.0287 18.656ZM58.3517 14.379H61.5627C61.5281 13.8157 61.3677 13.3997 61.0817 13.131C60.7957 12.8537 60.4317 12.715 59.9897 12.715C59.5477 12.715 59.1794 12.858 58.8847 13.144C58.5987 13.43 58.4211 13.8417 58.3517 14.379Z" fill="black"/>
<path d="M76.9434 19.3223C76.1074 19.3223 75.3242 19.1641 74.5938 18.8477C73.8633 18.5352 73.2207 18.1016 72.666 17.5469C72.1113 16.9961 71.6758 16.3555 71.3594 15.625C71.0469 14.8906 70.8906 14.1055 70.8906 13.2695C70.8906 12.4336 71.0469 11.6504 71.3594 10.9199C71.6758 10.1855 72.1113 9.54102 72.666 8.98633C73.2207 8.43164 73.8633 7.99805 74.5938 7.68555C75.3242 7.37305 76.1074 7.2168 76.9434 7.2168C77.7793 7.2168 78.5625 7.37305 79.293 7.68555C80.0273 7.99805 80.6719 8.43164 81.2266 8.98633C81.7812 9.54102 82.2148 10.1855 82.5273 10.9199C82.8438 11.6504 83.002 12.4336 83.002 13.2695C83.002 14.1055 82.8438 14.8906 82.5273 15.625C82.2148 16.3555 81.7812 16.9961 81.2266 17.5469C80.6719 18.1016 80.0273 18.5352 79.293 18.8477C78.5625 19.1641 77.7793 19.3223 76.9434 19.3223ZM76.9434 18.127C77.6152 18.127 78.2441 18 78.8301 17.7461C79.416 17.4961 79.9316 17.1484 80.377 16.7031C80.8262 16.2578 81.1758 15.7422 81.4258 15.1562C81.6758 14.5703 81.8008 13.9414 81.8008 13.2695C81.8008 12.5977 81.6758 11.9688 81.4258 11.3828C81.1758 10.793 80.8262 10.2773 80.377 9.83594C79.9316 9.39062 79.416 9.04297 78.8301 8.79297C78.2441 8.53906 77.6152 8.41211 76.9434 8.41211C76.2754 8.41211 75.6465 8.53906 75.0566 8.79297C74.4707 9.04297 73.9551 9.39062 73.5098 9.83594C73.0645 10.2773 72.7148 10.793 72.4609 11.3828C72.2109 11.9688 72.0859 12.5977 72.0859 13.2695C72.0859 13.9414 72.2109 14.5703 72.4609 15.1562C72.7148 15.7422 73.0645 16.2578 73.5098 16.7031C73.9551 17.1484 74.4707 17.4961 75.0566 17.7461C75.6465 18 76.2754 18.127 76.9434 18.127ZM74.2363 13.2695C74.2363 13.1055 74.2871 12.9727 74.3887 12.8711C74.4902 12.7656 74.625 12.7129 74.793 12.7129H76.3984V11.1074C76.3984 10.9473 76.4492 10.8164 76.5508 10.7148C76.6523 10.6094 76.7812 10.5566 76.9375 10.5566C77.1016 10.5566 77.2344 10.6074 77.3359 10.709C77.4414 10.8105 77.4941 10.9434 77.4941 11.1074V12.7129H79.0996C79.2637 12.7129 79.3965 12.7656 79.498 12.8711C79.5996 12.9727 79.6504 13.1055 79.6504 13.2695C79.6504 13.4258 79.5996 13.5547 79.498 13.6562C79.3965 13.7578 79.2637 13.8086 79.0996 13.8086H77.4941V15.4199C77.4941 15.5801 77.4414 15.7129 77.3359 15.8184C77.2344 15.9199 77.1016 15.9707 76.9375 15.9707C76.7812 15.9707 76.6523 15.9199 76.5508 15.8184C76.4492 15.7129 76.3984 15.5801 76.3984 15.4199V13.8086H74.793C74.6289 13.8086 74.4941 13.7578 74.3887 13.6562C74.2871 13.5547 74.2363 13.4258 74.2363 13.2695Z" fill="black"/>
</svg>
