<svg width="125" height="27" viewBox="0 0 125 27" fill="none" xmlns="http://www.w3.org/2000/svg">
<g clip-path="url(#clip0_659_1434)">
<path d="M38.7711 20.6195H34.0485L32.9144 23.9912H30.9141L35.3872 11.5157H37.4655L41.9386 23.9912H39.9042L38.7711 20.6195ZM34.5376 19.0636H38.281L36.4356 13.5906H36.3839L34.5376 19.0636Z" fill="white"/>
<path d="M51.5987 19.4443C51.5987 22.2706 50.0962 24.0864 47.829 24.0864C46.5419 24.0864 45.5198 23.5067 44.9869 22.4952H44.944V27H43.0898V14.8963H44.8845V16.409H44.9187C45.4341 15.4329 46.5332 14.8011 47.7949 14.8011C50.0874 14.8011 51.5987 16.6258 51.5987 19.4443ZM49.6928 19.4443C49.6928 17.6029 48.7477 16.3924 47.3057 16.3924C45.889 16.3924 44.9361 17.6285 44.9361 19.4443C44.9361 21.2768 45.889 22.504 47.3057 22.504C48.7478 22.504 49.6928 21.3023 49.6928 19.4443Z" fill="white"/>
<path d="M61.5401 19.4443C61.5401 22.2706 60.0376 24.0864 57.7704 24.0864C56.4833 24.0864 55.4612 23.5067 54.9283 22.4952H54.8854V27H53.0312V14.8963H54.8259V16.409H54.8601C55.3755 15.4329 56.4746 14.8011 57.7363 14.8011C60.0289 14.8011 61.5401 16.6258 61.5401 19.4443ZM59.6343 19.4443C59.6343 17.6029 58.6892 16.3924 57.2472 16.3924C55.8305 16.3924 54.8776 17.6285 54.8776 19.4443C54.8776 21.2768 55.8305 22.504 57.2472 22.504C58.6892 22.504 59.6343 21.3023 59.6343 19.4443Z" fill="white"/>
<path d="M63.043 11.5157H64.8981V23.9912H63.043V11.5157Z" fill="white"/>
<path d="M74.5507 21.3199C74.3013 22.971 72.7043 24.1041 70.6612 24.1041C68.0334 24.1041 66.4023 22.3314 66.4023 19.4874C66.4023 16.6347 68.0422 14.7845 70.5832 14.7845C73.0824 14.7845 74.654 16.5131 74.654 19.2707V19.9102H68.2741V20.023C68.2741 21.5788 69.2445 22.5991 70.704 22.5991C71.7338 22.5991 72.5416 22.1067 72.79 21.3199H74.5507ZM68.2828 18.6055H72.7989C72.756 17.2134 71.8713 16.2971 70.5833 16.2971C69.3039 16.2972 68.3773 17.231 68.2828 18.6055Z" fill="white"/>
<path d="M90.6629 23.9912V14.81H90.6025L86.8678 23.896H85.4424L81.6981 14.81H81.6386V23.9912H79.8867V11.5157H82.1111L86.1206 21.3631H86.1888L90.1903 11.5157H92.4225V23.9912H90.6629Z" fill="white"/>
<path d="M102.307 23.9911H100.53V22.4264H100.487C99.972 23.5154 99.0697 24.0951 97.6881 24.0951C95.7219 24.0951 94.5195 22.8159 94.5195 20.7322V14.8961H96.3737V20.3691C96.3737 21.7524 97.0265 22.4871 98.3058 22.4871C99.6455 22.4871 100.452 21.5532 100.452 20.1357V14.8961H102.307V23.9911Z" fill="white"/>
<path d="M107.589 14.7932C109.59 14.7932 111.024 15.9077 111.066 17.5155H109.323C109.246 16.7121 108.568 16.2197 107.537 16.2197C106.533 16.2197 105.864 16.6857 105.864 17.3949C105.864 17.9394 106.31 18.3023 107.246 18.5358L108.766 18.8909C110.586 19.3314 111.273 20.0053 111.273 21.3375C111.273 22.9797 109.728 24.1039 107.521 24.1039C105.391 24.1039 103.958 23.0051 103.82 21.3453H105.657C105.787 22.2183 106.481 22.6854 107.607 22.6854C108.714 22.6854 109.409 22.2272 109.409 21.5013C109.409 20.9392 109.066 20.637 108.122 20.3947L106.507 19.9974C104.876 19.5991 104.052 18.7604 104.052 17.4988C104.052 15.891 105.485 14.7932 107.589 14.7932Z" fill="white"/>
<path d="M112.727 12.5016C112.727 11.9051 113.207 11.4293 113.799 11.4293C114.4 11.4293 114.882 11.9051 114.882 12.5016C114.882 13.0892 114.401 13.565 113.799 13.565C113.207 13.565 112.727 13.0892 112.727 12.5016ZM112.873 14.8962H114.727V23.9911H112.873V14.8962Z" fill="white"/>
<path d="M122.716 18.0257C122.553 17.0663 121.806 16.3492 120.587 16.3492C119.162 16.3492 118.216 17.551 118.216 19.4444C118.216 21.3808 119.17 22.5473 120.604 22.5473C121.754 22.5473 122.51 21.9685 122.716 20.9139H124.502C124.296 22.824 122.776 24.1042 120.587 24.1042C118.011 24.1042 116.328 22.3315 116.328 19.4444C116.328 16.617 118.011 14.7845 120.569 14.7845C122.887 14.7845 124.33 16.2541 124.485 18.0258L122.716 18.0257Z" fill="white"/>
<path d="M25.1087 3.36846C24.8647 2.74433 24.3015 1.86555 23.5031 1.24645C23.042 0.889027 22.4916 0.547279 21.7355 0.321657C20.9294 0.0812681 19.9368 0 18.7012 0H7.404C6.16853 0 5.1758 0.0812681 4.36974 0.321657C3.61367 0.547279 3.06333 0.889027 2.60219 1.24645C1.80372 1.86555 1.24051 2.74423 0.996564 3.36846C0.504989 4.62595 0.5 6.05272 0.5 6.95119V18.3259C0.5 19.2244 0.504989 20.6512 0.996564 21.9086C1.24051 22.5328 1.80372 23.4115 2.60219 24.0307C3.06323 24.3881 3.61367 24.7298 4.36974 24.9554C5.1758 25.1959 6.16843 25.2771 7.4039 25.2771H18.7011C19.9366 25.2771 20.9293 25.1958 21.7353 24.9554C22.4914 24.7298 23.0418 24.3881 23.5029 24.0307C24.3013 23.4115 24.8645 22.5329 25.1085 21.9086C25.6001 20.6511 25.605 19.2244 25.605 18.3259V6.95119C25.6052 6.05272 25.6003 4.62595 25.1087 3.36846ZM18.8143 17.3853C18.7494 17.6964 18.631 17.989 18.4486 18.2526C18.2667 18.5153 18.0335 18.7305 17.7618 18.8922C17.4866 19.0557 17.198 19.1488 16.8898 19.2114C16.3113 19.3289 15.9153 19.3554 15.5435 19.28C15.1847 19.2074 14.8807 19.0414 14.6376 18.8169C14.2774 18.4843 14.0528 18.035 14.0038 17.5655C13.9463 17.0152 14.1283 16.4273 14.5387 15.9941C14.7458 15.7757 15.0059 15.6028 15.3531 15.4672C15.7165 15.3252 16.1176 15.2404 16.734 15.1153C16.8964 15.0823 17.0588 15.0494 17.2212 15.0163C17.4348 14.973 17.6179 14.918 17.7656 14.7362C17.9143 14.5532 17.9167 14.3338 17.9167 14.113L17.9168 8.54259C17.9168 8.11656 17.7271 8.00054 17.323 8.07869C17.0342 8.13545 10.8317 9.39485 10.8317 9.39485C10.4819 9.47994 10.3589 9.59506 10.3589 10.0321L10.359 18.1943C10.359 18.5144 10.3424 18.7982 10.2755 19.1188C10.2106 19.4299 10.0922 19.7225 9.90976 19.986C9.72788 20.2487 9.49461 20.464 9.22294 20.6255C8.94787 20.7891 8.65913 20.8869 8.35093 20.9495C7.77246 21.0669 7.37656 21.0934 7.00461 21.0181C6.64593 20.9456 6.34193 20.7748 6.09879 20.5504C5.73861 20.2178 5.52869 19.7684 5.4797 19.2989C5.42223 18.7486 5.58945 18.1608 5.99991 17.7276C6.20704 17.5091 6.46704 17.3362 6.81425 17.2006C7.17772 17.0587 7.5787 16.9739 8.19519 16.8487C8.35752 16.8158 8.52005 16.7828 8.68237 16.7498C8.89598 16.7065 9.07917 16.6514 9.22673 16.4697C9.37449 16.288 9.39135 16.0702 9.39135 15.8508C9.39135 14.1237 9.39135 6.45082 9.39135 6.45082C9.39135 6.32415 9.40233 6.23986 9.40871 6.19747C9.43854 5.99968 9.51746 5.82991 9.65974 5.70966C9.77797 5.60971 9.93012 5.5408 10.1249 5.49911L10.1278 5.49851L17.5895 3.98274C17.6542 3.96948 18.1935 3.87304 18.2542 3.86772C18.6574 3.83266 18.8839 4.09927 18.8839 4.53203L18.8843 16.4563C18.8844 16.7765 18.8811 17.0647 18.8143 17.3853Z" fill="white"/>
<path d="M33.9047 1.60376C35.0856 1.60376 35.8982 2.42588 35.8982 3.63154C35.8982 4.81953 35.0603 5.63773 33.8755 5.63773H32.4773V7.68611H31.5391V1.60376H33.9047ZM32.4774 4.80677H33.6583C34.4661 4.80677 34.9396 4.38596 34.9396 3.63154C34.9396 2.85945 34.4826 2.43864 33.6583 2.43864H32.4774V4.80677Z" fill="white"/>
<path d="M37.1172 3.09581H37.9834V3.8002H38.0507C38.1803 3.34895 38.6869 3.02026 39.2812 3.02026C39.4157 3.02026 39.5871 3.03202 39.6836 3.05753V3.95118C39.6076 3.92566 39.3397 3.89623 39.1809 3.89623C38.4988 3.89623 38.0165 4.3308 38.0165 4.97532V7.6858H37.1172V3.09581Z" fill="white"/>
<path d="M44.4135 6.44695C44.209 7.26897 43.4801 7.77426 42.4376 7.77426C41.132 7.77426 40.332 6.87268 40.332 5.40613C40.332 3.93859 41.1486 3.00757 42.4336 3.00757C43.7022 3.00757 44.4681 3.87972 44.4681 5.32175V5.63758H41.2488V5.68861C41.2781 6.49306 41.7428 7.00317 42.4629 7.00317C43.0075 7.00317 43.3797 6.80497 43.5473 6.44695H44.4135ZM41.2489 4.96755H43.5513C43.5308 4.24648 43.0953 3.77856 42.4298 3.77856C41.7644 3.77856 41.2996 4.2505 41.2489 4.96755Z" fill="white"/>
<path d="M45.6836 5.67977V4.79004H48.4293V5.67977H45.6836Z" fill="white"/>
<path d="M49.6133 6.38806C49.6133 5.56202 50.2242 5.08526 51.3086 5.01755L52.5441 4.94593V4.54963C52.5441 4.06504 52.2255 3.7913 51.6107 3.7913C51.108 3.7913 50.7602 3.97674 50.6598 4.30141H49.7896C49.8812 3.51263 50.6178 3.00745 51.6525 3.00745C52.7954 3.00745 53.4394 3.58034 53.4394 4.54963V7.68594H52.5732V7.04142H52.5021C52.2302 7.5005 51.7313 7.76249 51.1331 7.76249C50.2544 7.76249 49.6133 7.22686 49.6133 6.38806ZM52.5441 5.99568V5.61204L51.4304 5.68367C50.802 5.72586 50.5175 5.94073 50.5175 6.34587C50.5175 6.75884 50.8741 6.99923 51.3633 6.99923C52.0413 6.99923 52.5441 6.56466 52.5441 5.99568Z" fill="white"/>
<path d="M54.6133 5.38844C54.6133 3.93847 55.3538 3.02032 56.5055 3.02032C57.129 3.02032 57.6561 3.31957 57.9037 3.82476H57.9709V1.30444H58.8702V7.68585H58.0079V6.96097H57.9368C57.6649 7.46324 57.1329 7.7625 56.5055 7.7625C55.345 7.7625 54.6133 6.84323 54.6133 5.38844ZM55.5419 5.38844C55.5419 6.36255 55.9988 6.94821 56.7608 6.94821C57.5188 6.94821 57.9875 6.35371 57.9875 5.39326C57.9875 4.43583 57.5139 3.8335 56.7608 3.8335C56.0027 3.8335 55.5419 4.42307 55.5419 5.38844Z" fill="white"/>
<path d="M60.1133 5.38844C60.1133 3.93847 60.8538 3.02032 62.0055 3.02032C62.629 3.02032 63.1561 3.31957 63.4037 3.82476H63.4709V1.30444H64.3702V7.68585H63.5078V6.96097H63.4367C63.1648 7.46324 62.6328 7.7625 62.0054 7.7625C60.845 7.7625 60.1133 6.84323 60.1133 5.38844ZM61.0418 5.38844C61.0418 6.36255 61.4987 6.94821 62.2607 6.94821C63.0187 6.94821 63.4874 6.35371 63.4874 5.39326C63.4874 4.43583 63.0138 3.8335 62.2607 3.8335C61.5026 3.8335 61.0418 4.42307 61.0418 5.38844Z" fill="white"/>
<path d="M68.082 5.38845C68.082 3.90905 68.9025 3.00757 70.2333 3.00757C71.5604 3.00757 72.3807 3.90915 72.3807 5.38845C72.3807 6.87659 71.5652 7.77426 70.2333 7.77426C68.8975 7.77426 68.082 6.87659 68.082 5.38845ZM71.4561 5.38845C71.4561 4.39375 71.0118 3.81201 70.2333 3.81201C69.4509 3.81201 69.0105 4.39375 69.0105 5.38845C69.0105 6.392 69.4509 6.96982 70.2333 6.96982C71.0118 6.96982 71.4561 6.38808 71.4561 5.38845Z" fill="white"/>
<path d="M73.582 3.09587H74.4491V3.82477H74.5154C74.7376 3.31466 75.1896 3.00757 75.8766 3.00757C76.8937 3.00757 77.4541 3.62265 77.4541 4.7145V7.68596H76.5547V4.94203C76.5547 4.20429 76.2362 3.83743 75.5707 3.83743C74.9052 3.83743 74.4823 4.28475 74.4823 5.0009V7.68596H73.582V3.09587Z" fill="white"/>
</g>
<defs>
<clipPath id="clip0_659_1434">
<rect width="124" height="27" fill="white" transform="translate(0.5)"/>
</clipPath>
</defs>
</svg>
